<?xml version="1.0" encoding="UTF-8"?>
<svg width="70px" height="70px" viewBox="0 0 70 70" version="1.1" xmlns="http://www.w3.org/2000/svg" xmlns:xlink="http://www.w3.org/1999/xlink">
    <title>bia-logo</title>
    <g id="Page-1" stroke="none" stroke-width="1" fill="none" fill-rule="evenodd">
        <g id="bia-logo" fill-rule="nonzero">
            <polygon id="Path" fill="#004B8D" points="70 0 0 6.72740216 0 63.7022357 0 69.0612614 0 70 70 70 70 69.0612614 70 63.7022357"></polygon>
            <path d="M10,25 L23.3758454,25.0016267 L23.3758454,25.0016267 L23.5458937,25.0081335 L23.5458937,25.0081335 L23.7565217,25.0219605 L23.7565217,25.0219605 C24.4757764,25.0744217 25.6795031,25.6539346 26.0906832,25.9699216 L26.1776398,26.0373281 L26.1776398,26.0373281 L26.3561537,26.1889391 L26.3561537,26.1889391 L26.4906832,26.3090892 L26.6447205,26.4615926 C26.6382748,26.4548619 26.6312049,26.4487353 26.6236025,26.4432922 C28.2298137,28.0781287 28.4745342,30.6011449 26.973913,32.6471306 C26.698039,33.0181152 26.3653155,33.3448902 25.9875776,33.6158322 C25.6989812,33.8236184 25.3851841,33.9953343 25.0534161,34.1270236 L24.8760354,34.1889568 L24.8760354,34.1889568 L24.5723095,34.2872342 L24.5723095,34.2872342 L24.3426966,34.3556624 C24.1512808,34.4100555 23.9686574,34.4542724 23.8621118,34.4613111 C23.728273,34.4725738 23.5941049,34.4794046 23.4598359,34.4817957 L20.173913,34.4820515 L20.173913,36.0119657 L23.1949633,36.0129623 L23.1949633,36.0129623 L23.3405208,36.0166361 L23.3405208,36.0166361 L23.6099379,36.0302661 L23.6099379,36.0302661 C24.4981366,36.0827272 25.6621118,36.5304772 26.4074534,36.9294261 L26.5240683,36.9931725 L26.5240683,36.9931725 L26.7055901,37.0977899 L26.8621118,37.191732 L27.1147516,37.3565881 L27.1147516,37.3565881 L27.2208075,37.4305523 L27.2208075,37.4305523 L27.352795,37.5260194 L27.4968944,37.6382619 L27.5478261,37.6760828 L27.7329193,37.8310262 L27.9428571,38.0225705 L28.0670807,38.1506734 L28.0857143,38.1677537 C29.2608696,39.3621604 29.8496894,40.9420956 30.0124224,42.9405002 C30.0247244,43.0757066 30.0323263,43.211266 30.035219,43.346942 L30.0360248,51 L10.026087,51 L10.026087,47.5326827 L26.084472,47.5326827 L26.0835979,43.2992334 L26.0835979,43.2992334 L26.079135,43.1275259 L26.079135,43.1275259 L26.068323,42.9075595 C26.0470443,42.0805189 25.7569022,41.2836255 25.243033,40.6322638 L25.0726708,40.4267866 L25.0726708,40.4267866 L25.021118,40.3699029 L24.9115996,40.2580655 C24.3385773,39.7073375 23.3904503,39.2885012 22.352795,39.2267374 L22.0427019,39.2107245 L22.0427019,39.2107245 L21.731677,39.208437 L21.731677,39.208437 L17.0546584,39.208437 L17.0546584,31.2209188 L22.426087,31.2209188 C22.597004,31.2363069 22.7692675,31.2142213 22.9304348,31.1562573 C23.0517323,31.1056184 23.1657471,31.039581 23.2695652,30.959833 C23.413289,30.8653279 23.5365647,30.7438415 23.6322981,30.602365 C23.7598592,30.4027619 23.8479414,30.1813195 23.8919255,29.9496504 L23.9018634,29.887429 L23.9018634,29.6580639 L23.8931677,29.6225306 L23.8931677,29.6225306 L23.8919255,29.5690019 L23.8828157,29.5251713 L23.8807453,29.4921402 L23.8658385,29.4347989 L23.8658385,29.4164985 L23.8290373,29.3041035 L23.7986025,29.2273943 L23.7826087,29.1895735 C23.7813042,29.1855433 23.7791924,29.1818101 23.7763975,29.1785932 L23.7440994,29.1114917 L23.7440994,29.1017315 L23.6802186,28.9880722 L23.6802186,28.9880722 L23.6074534,28.8796865 L23.552795,28.8077049 L23.4968944,28.7418235 C23.305222,28.5131784 23.0395125,28.356 22.7440994,28.2965135 C22.6369571,28.2759718 22.528358,28.2642067 22.4194206,28.2612937 L22.2559006,28.2635728 L13.9490683,28.2635728 L13.9490683,44.4740744 L10,44.4740744 L10,25 Z M51.1440994,25.00122 L51.1987578,25.1573835 L57.7826087,44.4740744 L50.0198758,44.4740744 L49.1714286,47.5326827 L58.8223602,47.5339027 L58.8770186,47.6900662 L60,50.9926798 L44.1552795,50.99878 L47.6173913,40.510206 L52.4583851,40.4980057 L48.4521739,28.4673173 L40.8670807,50.99878 L37.1987578,50.99878 L45.7801242,25.00122 L51.1440994,25.00122 Z M36.1614907,31.7296701 L36.1614907,50.99878 L32.1118012,50.99878 L32.1118012,31.7296701 L36.1614907,31.7296701 Z M36.1614907,25.00122 L36.1614907,28.6710619 L32.1118012,28.6710619 L32.1118012,25.00122 L36.1614907,25.00122 Z" id="Shape" fill="#FFFFFF"></path>
        </g>
    </g>
</svg>